<?xml version="1.0" encoding="UTF-8" standalone="no"?>
<!-- Created with Inkscape (http://www.inkscape.org/) -->

<svg
   width="196.35791mm"
   height="196.35799mm"
   viewBox="0 0 196.35791 196.35799"
   version="1.1"
   id="svg1"
   xml:space="preserve"
   inkscape:version="1.3.2 (091e20e, 2023-11-25)"
   sodipodi:docname="drawing.svg"
   xmlns:inkscape="http://www.inkscape.org/namespaces/inkscape"
   xmlns:sodipodi="http://sodipodi.sourceforge.net/DTD/sodipodi-0.dtd"
   xmlns="http://www.w3.org/2000/svg"
   xmlns:svg="http://www.w3.org/2000/svg"><sodipodi:namedview
     id="namedview1"
     pagecolor="#ffffff"
     bordercolor="#000000"
     borderopacity="0.25"
     inkscape:showpageshadow="2"
     inkscape:pageopacity="0.0"
     inkscape:pagecheckerboard="0"
     inkscape:deskcolor="#d1d1d1"
     inkscape:document-units="mm"
     inkscape:zoom="0.45254834"
     inkscape:cx="397.74756"
     inkscape:cy="1645.1281"
     inkscape:window-width="1366"
     inkscape:window-height="699"
     inkscape:window-x="0"
     inkscape:window-y="32"
     inkscape:window-maximized="1"
     inkscape:current-layer="layer1"
     showguides="true"
     showgrid="false" /><defs
     id="defs1" /><g
     inkscape:label="Layer 1"
     inkscape:groupmode="layer"
     id="layer1"
     transform="translate(-1579.9428,978.97641)"><g
       id="g2"><g
         id="g50"
         transform="matrix(0.48995829,0,0,0.48995829,805.83673,-499.31881)"><path
           d="m 1599.0631,-693.49875 27.9254,-28.39775 a 163.86739,163.86739 0 0 1 -10.5306,-56.69784 163.86739,163.86739 0 0 1 163.867,-163.86751 163.86739,163.86739 0 0 1 54.4086,9.30537 l 27.696,-28.16469 a 200.38231,200.38231 0 0 0 -82.1046,-17.65525 200.38231,200.38231 0 0 0 -200.3821,200.38208 200.38231,200.38231 0 0 0 19.1203,85.09559 z"
           style="opacity:0.99;fill:#ffda1a;stroke-linecap:round;stroke-linejoin:round;stroke-opacity:0.976471"
           id="path29" /><path
           d="m 1905.2031,-884.09487 25.7958,-26.24388 a 200.38231,200.38231 0 0 0 -22.8673,-22.51284 l -25.275,26.44593 a 163.86739,163.86739 0 0 1 22.3465,22.31079 z"
           style="opacity:0.99;fill:#ffda1a;stroke-linecap:round;stroke-linejoin:round;stroke-opacity:0.976471"
           id="path50" /><path
           d="m 1651.262,-625.7401 25.9054,-26.3555 a 163.86739,163.86739 0 0 1 -19.5513,-18.63193 l -25.4532,26.63248 a 200.38231,200.38231 0 0 0 19.0991,18.35495 z"
           style="opacity:0.99;fill:#ffda1a;stroke-linecap:round;stroke-linejoin:round;stroke-opacity:0.976471"
           id="path49" /><path
           d="m 1923.8774,-856.75029 -216.2571,224.33566 a 163.86739,163.86739 0 0 0 72.7046,17.68781 163.86739,163.86739 0 0 0 163.8675,-163.86752 163.86739,163.86739 0 0 0 -20.315,-78.15595 z"
           style="opacity:0.99;fill:#ffda1a;stroke-linecap:round;stroke-linejoin:round;stroke-opacity:0.976471"
           id="path39" /><path
           d="m 1950.2293,-884.0866 -26.3519,27.33631 a 163.86739,163.86739 0 0 1 20.315,78.15595 163.86739,163.86739 0 0 1 -163.8675,163.86752 163.86739,163.86739 0 0 1 -72.7046,-17.68781 l -26.3663,27.3513 a 200.38231,200.38231 0 0 0 99.0709,26.85159 200.38231,200.38231 0 0 0 200.3826,-200.3826 200.38231,200.38231 0 0 0 -30.4782,-105.49226 z"
           style="opacity:0.99;fill:#ffda1a;stroke-linecap:round;stroke-linejoin:round;stroke-opacity:0.976471"
           id="path31" /><path
           d="m 1707.6203,-632.41463 a 163.86739,163.86739 0 0 1 -30.4529,-19.68097 l -25.9054,26.3555 a 200.38231,200.38231 0 0 0 29.992,20.67677 z"
           style="opacity:0.99;fill:#fef4a5;stroke-linecap:round;stroke-linejoin:round;stroke-opacity:0.976471"
           id="path48" /><path
           d="m 1923.8774,-856.75029 a 163.86739,163.86739 0 0 0 -18.6743,-27.34458 l -228.0357,231.99927 a 163.86739,163.86739 0 0 0 30.4529,19.68097 z"
           style="opacity:0.99;fill:#fef4a5;stroke-linecap:round;stroke-linejoin:round;stroke-opacity:0.976471"
           id="path46" /><path
           d="m 1950.2293,-884.0866 a 200.38231,200.38231 0 0 0 -19.2304,-26.25215 l -25.7958,26.24388 a 163.86739,163.86739 0 0 1 18.6743,27.34458 z"
           style="opacity:0.99;fill:#fef4a5;stroke-linecap:round;stroke-linejoin:round;stroke-opacity:0.976471"
           id="path32" /><path
           d="m 1657.6161,-670.72753 a 163.86739,163.86739 0 0 1 -30.6276,-51.16897 l -27.9254,28.39775 a 200.38231,200.38231 0 0 0 33.0998,49.4037 z"
           style="opacity:0.99;fill:#fef4a5;stroke-linecap:round;stroke-linejoin:round;stroke-opacity:0.976471"
           id="path28" /><path
           d="m 1908.1316,-932.85159 a 200.38231,200.38231 0 0 0 -45.7021,-28.46958 l -27.696,28.16469 a 163.86739,163.86739 0 0 1 48.1231,26.75082 z"
           style="opacity:0.99;fill:#fef4a5;stroke-linecap:round;stroke-linejoin:round;stroke-opacity:0.976471"
           id="path25" /><path
           d="m 1834.7335,-933.15648 a 163.86739,163.86739 0 0 0 -54.4086,-9.30537 163.86739,163.86739 0 0 0 -163.867,163.86751 163.86739,163.86739 0 0 0 10.5306,56.69784 z"
           style="opacity:0.99;fill:#ffbe02;stroke-width:0.817774;stroke-linecap:round;stroke-linejoin:round;stroke-opacity:0.976471"
           id="path30" /><path
           d="m 1882.8566,-906.40566 a 163.86739,163.86739 0 0 0 -48.1231,-26.75082 l -207.745,211.25998 a 163.86739,163.86739 0 0 0 30.6276,51.16897 z"
           style="opacity:0.99;fill:#ffbe02;stroke-width:0.817774;stroke-linecap:round;stroke-linejoin:round;stroke-opacity:0.976471"
           id="path27" /><path
           d="m 1882.8566,-906.40566 -225.2405,235.67813 a 163.86739,163.86739 0 0 0 122.7088,56.00071 163.86739,163.86739 0 0 0 163.8675,-163.86752 163.86739,163.86739 0 0 0 -61.3358,-127.81132 z"
           style="opacity:0.99;fill:#ffbe02;stroke-width:0.817774;stroke-linecap:round;stroke-linejoin:round;stroke-opacity:0.976471"
           id="path26" /></g><g
         id="g63"
         transform="matrix(0.9603124,0,0,0.9603124,-189.76893,-108.48017)"><g
           id="g52"
           transform="matrix(0.52206205,0,0,0.52206205,932.27888,-352.92149)"><circle
             style="opacity:0.99;fill:#fef4a5;fill-opacity:1;stroke-width:1;stroke-linecap:round;stroke-linejoin:round;stroke-opacity:0.976471"
             id="path52"
             cx="1950.6274"
             cy="-935.58545"
             r="40.681286" /><circle
             style="opacity:0.99;fill:#fef4a5;fill-opacity:1;stroke-width:1;stroke-linecap:round;stroke-linejoin:round;stroke-opacity:0.976471"
             id="path52-6"
             cx="1950.6274"
             cy="-854.2229"
             r="40.681286" /><rect
             style="opacity:0.99;fill:#fef4a5;fill-opacity:1;stroke-width:1;stroke-linecap:round;stroke-linejoin:round;stroke-opacity:0.976471"
             id="rect52"
             width="81.362572"
             height="81.362549"
             x="1909.9462"
             y="-935.58545" /></g><path
           style="opacity:0.99;fill:#fefad4;fill-opacity:1;stroke:#fef4a5;stroke-width:4.17649;stroke-linecap:round;stroke-linejoin:round;stroke-dasharray:none;stroke-opacity:1"
           d="m 1918.0346,-801.11687 h 65.1857"
           id="path56" /><path
           style="opacity:0.99;fill:none;fill-opacity:1;stroke:#fef4a5;stroke-width:4.1765;stroke-linecap:round;stroke-linejoin:round;stroke-dasharray:none;stroke-opacity:1"
           id="path55"
           sodipodi:type="arc"
           sodipodi:cx="1950.6274"
           sodipodi:cy="-801.11688"
           sodipodi:rx="32.592861"
           sodipodi:ry="32.592861"
           sodipodi:start="0"
           sodipodi:end="3.1473205"
           sodipodi:open="true"
           sodipodi:arc-type="arc"
           d="m 1983.2203,-801.11688 a 32.592861,32.592861 0 0 1 -16.3503,28.25731 32.592861,32.592861 0 0 1 -32.6467,-0.0935 32.592861,32.592861 0 0 1 -16.1882,-28.3505" /><rect
           style="opacity:0.99;fill:#ffbe02;fill-opacity:0.992157;stroke:none;stroke-width:3.48394;stroke-linecap:round;stroke-linejoin:round;stroke-dasharray:none;stroke-opacity:1"
           id="rect55"
           width="42.476299"
           height="5.1665926"
           x="1929.3893"
           y="-822.70026" /><rect
           style="opacity:0.99;fill:#ffbe02;fill-opacity:0.992157;stroke:none;stroke-width:3.48394;stroke-linecap:round;stroke-linejoin:round;stroke-dasharray:none;stroke-opacity:1"
           id="rect55-2"
           width="42.476299"
           height="5.1665926"
           x="1929.3893"
           y="-834.56335" /><rect
           style="opacity:0.99;fill:#ffbe02;fill-opacity:0.992157;stroke:none;stroke-width:3.48394;stroke-linecap:round;stroke-linejoin:round;stroke-dasharray:none;stroke-opacity:1"
           id="rect55-5"
           width="42.476299"
           height="5.1665926"
           x="1929.3893"
           y="-810.83722" /><path
           style="opacity:0.99;fill:#fefad4;fill-opacity:1;stroke:#fef4a5;stroke-width:4.17649;stroke-linecap:round;stroke-linejoin:round;stroke-dasharray:none;stroke-opacity:0.992157"
           d="m 1950.6274,-768.52402 v 27.77526"
           id="path59" /><path
           style="opacity:0.99;fill:#fefad4;fill-opacity:1;stroke:#fef4a5;stroke-width:4.17649;stroke-linecap:round;stroke-linejoin:round;stroke-dasharray:none;stroke-opacity:0.992157"
           d="m 1950.6274,-740.74876 21.2382,0.23519"
           id="path61" /><path
           style="opacity:0.99;fill:#fefad4;fill-opacity:1;stroke:#fef4a5;stroke-width:4.17649;stroke-linecap:round;stroke-linejoin:round;stroke-dasharray:none;stroke-opacity:0.992157"
           d="m 1929.3893,-740.98396 21.2381,0.2352"
           id="path61-9" /></g></g></g></svg>
