<svg xmlns="http://www.w3.org/2000/svg" xmlns:svg="http://www.w3.org/2000/svg" id="svg1" width="435.033" height="335.256" version="1.1" viewBox="0 0 115.102 88.703"><g id="layer1" transform="translate(-408.51106,-518.74394)"><g id="g4" transform="translate(369.51106,48.339817)" style="display:inline"><path id="path5" style="display:inline;fill:#fff;fill-opacity:1;stroke:#fff;stroke-width:.258;stroke-linecap:round;stroke-linejoin:round;stroke-dasharray:none;stroke-opacity:1" d="m 72.248985,508.17783 c -9.761101,0.0314 -18.544533,6.23948 -22.259623,15.73289 h 0.0041 a 1.7715543,1.7715543 45.006964 0 1 1.771554,1.77198 l -0.0038,15.79078 a 1.7724158,1.7724158 135.00696 0 1 -1.772416,1.77198 c 3.715162,9.49359 12.498851,15.70168 22.26014,15.73289 h 48.660594 c 9.78529,-0.005 18.60077,-6.21904 22.3237,-15.73651 a 2.1299972,2.1299972 52.267332 0 1 -1.84334,-2.3822 l 0.0394,-15.22328 a 1.7337611,1.7337611 135.15683 0 1 1.73875,-1.72926 l 0,0 c -3.71602,-9.49163 -12.4987,-15.698 -22.25859,-15.72927 z"/><path id="path5-1-7" style="display:inline;fill:none;fill-opacity:1;stroke:#fff;stroke-width:7.27844;stroke-linecap:round;stroke-linejoin:round;stroke-dasharray:none;stroke-opacity:1" d="m 43.712307,528.16552 c -0.704616,1.95631 -1.068131,4.0302 -1.073114,6.12216 0.02592,1.59375 0.259836,3.17622 0.69525,4.70301 h 3.408853 l 0.0028,-10.82517 z"/><path id="path5-1-8-1" style="display:inline;fill:none;fill-opacity:1;stroke:#fff;stroke-width:7.27458;stroke-linecap:round;stroke-linejoin:round;stroke-dasharray:none;stroke-opacity:1" d="m 149.41002,528.1722 c 0.69866,1.95728 1.05608,4.03109 1.05511,6.12194 -0.0304,1.59282 -0.26876,3.17376 -0.70831,4.6985 l -3.40703,-0.01 0.028,-10.81936 z"/><circle style="fill:#fff;fill-opacity:1;stroke:#fff;stroke-width:.499999;stroke-linecap:round;stroke-linejoin:round;stroke-opacity:1" id="path6" cx="96.611" cy="508.049" r="8.139"/><circle style="fill:#fff;fill-opacity:1;stroke:#fff;stroke-width:.499999;stroke-linecap:round;stroke-linejoin:round;stroke-opacity:1" id="path8" cx="96.611" cy="474.339" r="3.685"/><g id="g9" transform="matrix(1.5821822,0,0,1.5821822,-12.624934,381.47)"><path style="fill:#000;fill-opacity:1;stroke:#000;stroke-width:1.66348;stroke-linecap:round;stroke-linejoin:round;stroke-dasharray:none;stroke-opacity:1" id="path9" d="m 56.541346,91.248812 v 9.778718"/><path style="fill:#000;fill-opacity:1;stroke:#000;stroke-width:1.66348;stroke-linecap:round;stroke-linejoin:round;stroke-dasharray:none;stroke-opacity:1" id="path9-8" d="m 81.501493,91.248812 v 9.778718"/><path style="fill:#000;fill-opacity:1;stroke:#000;stroke-width:1.9152;stroke-linecap:round;stroke-linejoin:round;stroke-dasharray:none;stroke-opacity:1" id="path9-9" d="M 62.642478,89.657146 V 102.61919"/><path style="fill:#000;fill-opacity:1;stroke:#000;stroke-width:1.9152;stroke-linecap:round;stroke-linejoin:round;stroke-dasharray:none;stroke-opacity:1" id="path9-9-7" d="M 75.400361,89.657145 V 102.61919"/><path style="fill:#000;fill-opacity:1;stroke:#000;stroke-width:2.2191;stroke-linecap:round;stroke-linejoin:round;stroke-dasharray:none;stroke-opacity:1" id="path9-9-2" d="m 69.02142,87.43715 v 17.40204"/></g><path style="fill:none;fill-opacity:1;stroke:#fff;stroke-width:1.8;stroke-linecap:round;stroke-linejoin:round;stroke-dasharray:none;stroke-opacity:1" id="path3" d="m 96.61106,504.40023 6.76663,-11.21519 a 1.7928314,1.7928314 60.826458 0 0 -1.51791,-2.71893 l -10.448588,-0.10002 a 1.8454457,1.8454457 60.492592 0 1 -1.573458,-2.78024 l 6.773326,-11.52792"/></g></g></svg>