<svg xmlns="http://www.w3.org/2000/svg" xmlns:svg="http://www.w3.org/2000/svg" id="svg1" width="152.01" height="152.01" version="1.1" viewBox="0 0 40.219 40.219" xml:space="preserve"><g id="layer1" transform="translate(6.188368,-405.60805)"><g id="g13" transform="matrix(0.09822176,0.04065158,-0.04065158,0.09822176,72.641828,464.2518)"><path style="fill:#6be62e;fill-opacity:1;stroke:none;stroke-width:10;stroke-linecap:round" id="path8" d="m -504.2617,21.072081 -144.77089,59.966066 -144.77089,-59.966065 -59.96607,-144.770892 59.96607,-144.77088 144.77089,-59.96607 144.77089,59.96606 59.96606,144.77089 z"/><path style="fill:#9f3;fill-opacity:1;stroke:none;stroke-width:10;stroke-linecap:round" id="path8-4" d="m -504.2617,21.072081 -144.77089,59.966066 -144.77089,-59.966065 -59.96607,-144.770892 59.96607,-144.77088 144.77089,-59.96607 144.77089,59.96606 59.96606,144.77089 z" transform="matrix(0.78656917,0,0,0.78656917,-138.52356,-26.401139)"/><path style="fill:#44cc29;fill-opacity:1;stroke:none;stroke-width:10;stroke-linecap:round" id="path9" d="m -649.03259,-284.73858 v -43.69717 l 144.77089,59.96606 -30.89857,30.89857 z"/><path style="fill:#44cc29;fill-opacity:1;stroke:none;stroke-width:10;stroke-linecap:round" id="path10" d="m -487.99281,-123.69881 h 43.69718 L -504.2617,21.072081 -535.16027,-9.8264897 Z"/><path style="fill:#44cc29;fill-opacity:1;stroke:none;stroke-width:10;stroke-linecap:round" id="path11" d="M -649.03259,37.340969 -762.9049,-9.8264889 -793.80346,21.072082 -649.03259,81.038146 Z"/><path style="fill:#44cc29;fill-opacity:1;stroke:none;stroke-width:10;stroke-linecap:round" id="path12" d="m -810.07236,-123.69881 h -43.69717 l 59.96607,-144.77088 30.89855,30.89857 z"/><path style="fill:#c3ff87;fill-opacity:1;stroke:none;stroke-width:10;stroke-linecap:round" id="path14" d="m -705.96874,13.75723 113.87231,-274.91208 56.93616,23.58372 -113.87231,274.912086 z"/><path style="fill:#c3ff87;fill-opacity:1;stroke:none;stroke-width:10;stroke-linecap:round" id="path15" d="m -738.80822,0.15466708 -24.09666,-9.98117178 113.87231,-274.9120953 23.35345,9.67334 z"/><path style="display:inline;fill:#000;fill-opacity:.05;stroke:none;stroke-width:10;stroke-linecap:round" id="path13" d="m -648.97801,65.453466 -0.10917,-378.304546 78.34945,-0.0225 110.83481,110.77086 0.0452,156.698861 -110.77085,110.834812 z" transform="rotate(-22.483466,-649.03259,-123.69879)"/></g></g></svg>